@startuml  
/' 
 Modelo de Restaurante con Sucursales, Canales de Venta, Puntos de Venta, Gestión de Almacenes, Auditoría, Reservaciones/Promociones y Módulo de Cajas.
 Optimizado a 3FN y con mejoras en nomenclatura, normalización y trazabilidad.
'/ 

' ALMACENES =================
entity Warehouse {
  * id : UUID <<PK>>
  --
  name : nvarchar(50)
  shortname : nvarchar(50)
  parent_warehouse_id : UUID <<<FK>> > /'Para reabastecimiento de otro almacén'/
  branch_id : UUID <<<FK>> >  /'Ubicación o dirección del almacén'/
  is_deleted : boolean
  created_at : datetime
  updated_at : datetime
}

entity Storage_type {
  * id : UUID <<PK>>
  --
  name : nvarchar(50)
  maximum_Weight : nvarchar(50)  /'Kg, Libras, etc.'/
  allow_new_product : boolean /'Si la ubicación está vacía, permite productos mezclados'/
  is_deleted : boolean
  created_at : datetime
  updated_at : datetime
}

entity Detail_storage_type {
  * id : UUID <<PK>>
  --
  warehouseCategory_id : UUID <<<FK>> > 
  product_id : UUID <<<FK>> > 
  quantity : int
  is_deleted : boolean
  created_at : datetime
  updated_at : datetime
}

' ENTIDAD: SUCURSAL
entity Branch {
  * id : UUID <<PK>>
  --
  name : nvarchar(50)
  country : nvarchar(50)
  city : nvarchar(50)       
  address : nvarchar(50) 
  phone : nvarchar(50)
  is_deleted : boolean
  created_at : datetime
  updated_at : datetime
}

' PUNTO DE VENTA (POS)
entity POS {
  * id : UUID <<PK>>
  --
  name : nvarchar(50)           /'Tipo de punto de venta (restaurante, RestoBar, etc.)'/
  branch_id : UUID <<<FK>> > 
  is_deleted : boolean
  created_at : datetime
  updated_at : datetime
}


' CLIENTE
entity IDType {
  * id : UUID <<PK>>
  --
  name : nvarchar(50)
}
entity Customer {
  * id : UUID <<PK>>
  --
  IDType_id: UUID <<<FK>> >
  IDNumber: nvarchar(50)
  name : nvarchar(50)
  lastname : nvarchar(50)
  phone : nvarchar(50)
  email : nvarchar(50)
  is_deleted : boolean
  created_at : datetime
  updated_at : datetime
}

' MESA
entity Table {
  * id : UUID <<PK>>
  --
  number : int
  capacity : int
  is_deleted : boolean 
  created_at : datetime
  updated_at : datetime
}

' EMPLEADO
entity Employee {
  * id : UUID <<PK>>
  --
  first_name : nvarchar(50)
  last_name : nvarchar(50)
  phone : nvarchar(50)
  birth_date : date
  photo_url : nvarchar(255)
  start_date: datetime
  end_date: datetime 'Puede ser NULL si aún trabaja'
  is_deleted : boolean
  created_at : datetime
  updated_at : datetime
}

' ORDEN
entity Order {
  * id : UUID <<PK>>
  --
  table_id : UUID <<FK>> 
  employee_id : UUID <<FK>>  /'Replaces waiter_id'/
  customer_id : UUID <<FK>>  [optional]
  order_date : datetime
  total : decimal
  order_type_id : UUID <<FK>> 
  order_status : nvarchar(50) /'pendiente, en preparación, servida, cancelada'/
  is_deleted : boolean
  created_at : datetime
  updated_at : datetime
}

' TIPO DE ORDEN
entity Order_type {
  * id : UUID <<PK>>
  --
  name : nvarchar(50)
  description : nvarchar(50)
  is_deleted : boolean
  created_at : datetime
  updated_at : datetime
}

' DETALLE DE LA ORDEN
entity Order_detail {
  * id : UUID <<PK>>
  --
  order_id : UUID <<FK>> 
  product_id : UUID <<FK>> 
  product_price_id : UUID <<FK>> 
  unit_price : int
  quantity : int
  subtotal : decimal
  is_deleted : boolean
  created_at : datetime
  updated_at : datetime
}

' TIPO DE PRODUCTO
entity Product_type {
  * id : UUID <<PK>>
  --
  name : nvarchar(50)
  description : nvarchar(50)
  is_deleted : boolean
  created_at : datetime
  updated_at : datetime
}

' PRODUCTO 
entity Product {
  * id : UUID <<PK>>
  --
  name : nvarchar(50)
  description : nvarchar(50)
  image_url : nvarchar(50)
  supplier_id : UUID <<FK>> 
  product_type_id : UUID <<FK>> 
  is_deleted : boolean
  created_at : datetime
  updated_at : datetime
}

' Product Taxes
entity Product_tax {
  * id : UUID <<PK>>
  --
  product_id : UUID <<FK>> 
  tax_id : UUID <<FK>> 
  is_deleted : boolean
  created_at : datetime
  updated_at : datetime
}

' Precio
entity Price {
  * id : UUID <<PK>>
  --
  name : nvarchar(50) /'Precio Público', 'Happy Hour'/
  cost_price : decimal(10,2) /'precio de costo base'/
  markup_pct : decimal(10,2)/'utilidad en % (e.g. 30.00)'/
  tax_pct    : decimal(10,2)/'impuesto en % (e.g. 18.00)'/
  final_price: decimal(10,2)/'precio calculado o fijo'/
  is_deleted : boolean
  created_at : datetime
  updated_at : datetime
}
' Producto Precio 
entity Product_price {
  * id : UUID <<PK>>
  --
  product_id : UUID <<FK>> 
  price_id : UUID <<FK>> 
  valid_from : datetime /'inicio de vigencia de este precio'/
  valid_to   : datetime /'fin de vigencia (NULL = vigente)'/
  is_deleted : boolean
  created_at : datetime
  updated_at : datetime
}

' INVENTARIO (para sucursales)
entity Inventory {
  * id : UUID <<PK>>
  --
  barCode: nvarchar(50) 
  product_id : UUID <<FK>> 
  warehouse_id : UUID <<FK>> 
  min_stock : int
  max_stock : int
  current_stock : int
  alert_high_stock : int
  alert_low_stock : int
  is_deleted : boolean
  created_at : datetime
  updated_at : datetime
}

' USUARIOS Y PERMISOS
entity User {
  * id : UUID <<PK>>
  --
  username : nvarchar(50)
  password : nvarchar(50)     /'Almacenar hash de la contraseña'/
  role_id : UUID <<FK>> 
  employee_id : UUID <<FK>> 
  is_deleted : boolean
  created_at : datetime
  updated_at : datetime
}

entity Role {
  * id : UUID <<PK>>
  --
  name : nvarchar(50)
  is_deleted : boolean
  created_at : datetime
  updated_at : datetime
}

entity Permission {
  * id : UUID <<PK>>
  --
  name : nvarchar(50)
  description : nvarchar(50)
  is_deleted : boolean
  created_at : datetime
  updated_at : datetime
}

' Tabla intermedia con clave compuesta (en lugar de id)
entity Role_permission {
  * id : UUID <<PK>>
  --
  role_id : UUID <<FK>> 
  permission_id : UUID <<FK>> 
  is_deleted : boolean
  created_at : datetime
  updated_at : datetime
}

' COMPROBANTES (boleta, factura)
entity Receipt_type {
  * id : UUID <<PK>>
  --
  name : nvarchar(50)
  description : nvarchar(50)
  is_deleted : boolean
  created_at : datetime
  updated_at : datetime
}

' CANALES DE VENTA (web, tienda, terceros)
entity Sales_channel {
  * id : UUID <<PK>>
  --
  name : nvarchar(50)
  description : nvarchar(50)
  is_deleted : boolean
  created_at : datetime
  updated_at : datetime
}

' VENTA (transacción final)
entity Sale {
  * id : UUID <<PK>>
  --
  sale_date : datetime
  employee_id : UUID <<FK>> /' cashier_id '/
  total : decimal
  customer_id : UUID <<FK>> 
  receipt_type_id : UUID <<FK>> 
  payment_method_id : UUID <<FK>> 
  sales_channel_id : UUID <<FK>> 
  pos_id : UUID <<FK>> 
  sale_condition_id: UUID <<FK>> 
  discount_id: UUID <<FK>> 
  creditTerm: nvarchar(10) /'plazo credito: Se omite si viene vacío, pero es de condición obligatoria cuando la condición de la venta es crédito'/
  tax_id: UUID <<FK>> 
  is_deleted : boolean
  created_at : datetime
  updated_at : datetime
}
entity Sale_order {
  * id : UUID <<PK>>
  --
  sale_id: UUID <<FK>> 
  order_id: UUID <<FK>> 
  is_deleted : boolean
  created_at : datetime
  updated_at : datetime
}

' MÉTODO DE PAGO
entity Payment_method {
  * id : UUID <<PK>>
  --
  name : nvarchar(50)
  is_deleted : boolean
  created_at : datetime
  updated_at : datetime
}

' MOVIMIENTOS DE INVENTARIO
entity Inventory_movement {
  * id : UUID <<PK>>
  --
  inventory_id : UUID <<FK>> 
  movement_date : datetime
  movement_type_id : UUID <<FK>> 
  quantity : int
  description : nvarchar(50)
  is_deleted : boolean
  created_at : datetime
  updated_at : datetime
}

' TIPO DE MOVIMIENTO (ingreso o salida)
entity Movement_type {
  * id : UUID <<PK>>
  --
  name : nvarchar(50)
  is_deleted : boolean
  created_at : datetime
  updated_at : datetime
}

' NUEVAS ENTIDADES: Reservaciones y Promociones

' Reservaciones
entity Reservation {
  * id : UUID <<PK>>
  --
  customer_id : UUID <<FK>> 
  table_id : UUID <<FK>> 
  reservation_date : datetime
  number_of_people : int
  status: nvarchar
  note : nvarchar(50)
  is_deleted : boolean
  created_at : datetime
  updated_at : datetime
}

' Impuestos
entity Tax {
  * id : UUID <<PK>>
  --
  name : nvarchar(50)
  rate : decimal
  is_deleted : boolean
  created_at : datetime
  updated_at : datetime
}

' MÓDULO DE CAJAS

' Caja principal
entity Cash_register {
  * id : UUID <<PK>>
  --
  name : nvarchar(50) /'caja principal salon1'/ 
  pos_id : UUID <<FK>> 
  description: nvarchar(50)
  is_deleted : boolean
  created_at : datetime
  updated_at : datetime
}

' (Apertura de caja)
entity Cash_register_session {
  * id : UUID <<PK>>
  --
  cash_register_id : UUID<<FK>> /'caja principal salon1'/ 
  employee_id : UUID <<FK>> 
  opened_at : datetime
  closed_at  : datetime
  opening_amount  : decimal /'Monto inicial, ej: $100'/ 
  closing_amount  : decimal /'Monto final, ej: $100'/ 
  expected_balance  : decimal /'calculado al cerrar'/ 
  discrepancy   : decimal /'diferencia (overage/shortage)'/ 
  description: nvarchar(50)
  status: nvarchar(50) 'Default OPEN'
  is_deleted : boolean
  created_at : datetime
  updated_at : datetime
}

'Movimientos de caja SALE | INCOME | EXPENSE | REFUND
entity Cash_register_movement {
  * id : UUID <<PK>>
  --
  session_id : UUID <<FK>> 
  movement_type_id: UUID <<FK>>
  amount: decimal
  description : nvarchar
  is_deleted : boolean
  created_at : datetime
  updated_at : datetime
}
'(Opcional) Registro de aprobaciones de cierre con discrepancia
entity Cash_register_session_approval {
  * id : UUID <<PK>>
  --
  session_id : UUID <<FK>> 
  approved_by: UUID <<FK>>
  mount: decimal
  approved_at : datetime
  note : nvarchar(100)
  is_deleted : boolean
  updated_at : datetime
}
' Promociones y Descuentos
entity Discount {
  * id : UUID <<PK>>
  --
  name : nvarchar(50)
  description : nvarchar(50)
  discount_type : nvarchar(50) /'percentage or fixed amount'/
  value : decimal
  start_date : datetime
  end_date : datetime
  is_deleted : boolean
  created_at : datetime
  updated_at : datetime
}

' Turnos
entity Shift {
  * id : UUID <<PK>>
  --
  name : nvarchar(50)
  start_time : datetime
  end_time : datetime
  is_deleted : boolean
  created_at : datetime
  updated_at : datetime
}

' Auditoría
entity AuditLog {
  * id : UUID <<PK>>
  --
  employee_id : UUID <<FK>>
  action : nvarchar(50)
  entity_name : nvarchar(50)
  entity_id : int
  timestamp : datetime
  description : nvarchar(50)
  is_deleted : boolean
  created_at : datetime
}

' Proveedor
entity Supplier {
  * id : UUID <<PK>>
  --
  name : nvarchar(50)
  contact : nvarchar(50)
  email : nvarchar(50)
  address : nvarchar(50)
  is_deleted : boolean
  created_at : datetime
  updated_at : datetime
}

' Programa de Lealtad
entity LoyaltyProgram {
  * id : UUID <<PK>>
  --
  name : nvarchar(50)
  points : int
  customer_id : UUID <<FK>>
  is_deleted : boolean
  created_at : datetime
  updated_at : datetime
}

' Relación entre Employee y Shift mediante tabla intermedia.
entity Employee_Shift {
  * id : UUID <<PK>>
  --
  employee_id : UUID <<FK>>
  shift_id : UUID <<FK>>
  is_deleted : boolean
  created_at : datetime
  updated_at : datetime
}
/'condicion venta, contado, credito,'/
entity Sale_condition {
  * id : UUID <<PK>>
  --
  name: nvarchar(50)
  is_deleted : boolean
  created_at : datetime
  updated_at : datetime
}
'MODULO FACTURACION
entity Invoice {
  * id : UUID <<PK>>
  --
  batch_Id : int
  sale_id: UUID <<FK>>
  cash_register_movement_id:UUID <<FK>>
  key: mvarchar(50) /'(si no se envía el API lo genera automáticamente y lo devuelve en la respuesta)'/
  consecutiveNumber : varchar(20)
  issueDate : datetime
  currencyCode : varchar(3) /'codigo moneda'/
  exchangeRate : decimal(18,5) /'tipo de cambio'/
  invoiceComment : varchar(255) /'Comentario factura'/
  document : varchar(255)
  emailCopy : varchar(255) /'deben de venir separadas por punto y coma (;) sin espacios.'/
  other_content : varchar(255)
  other_text : varchaer(255)
  is_deleted : boolean
  created_at : datetime
  updated_at : datetime
}

' Tabla maestra de pasarelas de pago.
entity PaymentGateway {
  * id : UUID <<PK>>
  --
  name : varchar(50) /'ej: Onvopay, tilopay,etc.'/
  code: varchar(50) /'ej: ONVO, TILO,etc.'/
  config: nvarchar(max) /'JSON con settings genéricos (p. ej. endpoints, llaves)'/
  is_deleted : boolean
  created_at : datetime
  updated_at : datetime
}
'Configuración de cada cliente para cada pasarela.
entity GatewayCustomer{
  * id : UUID <<PK>>
  --
  customer_id: UUID <<FK>> /'cliente base'/
  paymentGateway_id: UUID <<FK>> /'pasarela de pago'/
  configJson: nvarchar(max) /'JSON parametros espesificos'/
  ApiKey: varchar(255)
  SecretKey: varchar(255)
  RedirectUrl: varchar(500)
  ExternalCustomerId: varchar(100) /'id que devuelve la Api de onvo por cada customer'/
  is_deleted : boolean
  created_at : datetime
  updated_at : datetime
}
'si existe metodo de pago y hay que configurar para sinpe, card, banco.
entity GatewayPaymentMethods{
  * id : UUID <<PK>>
  --
  gatewayCustomer_id: UUID <<FK>>
  methodType: varchar(50)  /'sinpe,card,zunify'/
  externalMethodId: varchar(100) /'id que devuelve la Api de onvo por cada metodo de pago'/
  metaJson: nvarchar(MAX) /'Json Configuracion base'/
  is_deleted : boolean
  created_at : datetime
  updated_at : datetime
}
'cuando se realice la transaccion copn el tipo de pasarela y metodo de pago (intencion de pago etc.)
entity GatewayTransactions {
  * id      : UUID <<PK>>
  --
  gatewayCustomer_id   : UUID <<FK>>
  gatewayPaymentMethod_id : UUID <<FK>> /'opcional si existe metodo'/
  amount: decimal(18,2)
  currency: varchar(10)
  status : boolean: varchar(50)
  requestJson: nvarchar(MAX)  /'todo el payload enviado'/
  responseJson: nvarchar(MAX) /'podemos guardar por seguridad la respuesta de cada transaccion'/
  is_deleted : boolean
  created_at : datetime
  updated_at : datetime
}
'=================== Relaciones ====================
Customer "1" -- "0..*" GatewayCustomer
PaymentGateway "1" -- "0..*" GatewayCustomer
GatewayCustomer "1" -- "0..*" GatewayTransactions
GatewayPaymentMethods "1" -- "0..*" GatewayTransactions

'RELACION FACTURACION
Cash_register "1" -- "0..*" Cash_register_session
Cash_register_session "1" -- "0..*" Cash_register_movement
Cash_register_session "1" -- "0..*" Cash_register_session_approval
Cash_register_movement "1" -- "0..*" Invoice
' Receipt_type "1" -- "0..*" Invoice
IDType "1" -- "0..*" Customer
Sale_condition "1" -- "0..*" Sale

POS "1" -- "0..*" Cash_register

' RELACIONES GENERALES ACTUALIZADAS

' Un empleado atiende muchas órdenes.
Employee "1" -- "0..*" Order
Employee "1" -- "1" User
Employee "1" -- "0..*" Sale
' Una operación de caja es realizada por un usuario.
Employee "1" -- "0..*" Cash_register_session
' Un cliente puede generar muchas ventas.
Customer "1" -- "0..*" Sale

' Un tipo de orden se vincula a muchas órdenes.
Order_type "1" -- "0..*" Order

' Una orden tiene muchos detalles.
Order "1" -- "0..*" Order_detail

' Un producto aparece en muchos detalles.
Product "1" -- "0..*" Order_detail
Product "1" -- "0..*" Product_price
Price "1" -- "0..*" Product_price
Product_price "1" -- "0..*" Order_detail

' Un tipo de producto agrupa muchos productos.
Product_type "1" -- "0..*" Product

' Un usuario tiene un único rol.
Role "1" -- "0..*" User

' Un rol puede tener muchos permisos (vía clave compuesta).
Role "1" -- "0..*" Role_permission : has
Permission "1" -- "0..*" Role_permission : assigned_to



' Un comprobante se asocia a muchas ventas.
Receipt_type "1" -- "0..*" Sale

' Un método de pago se utiliza en muchas ventas.
Payment_method "1" -- "0..*" Sale

' Inventario para sucursales: un producto tiene un único registro (o ninguno).
Inventory "1" -- "0..1" Inventory_movement

' Un producto genera muchos movimientos de inventario.
Product "1" -- "0..*" Inventory_movement

' Un tipo de movimiento se usa en muchos movimientos.
Movement_type "1" -- "0..*" Inventory_movement
Movement_type "1" -- "0..*" Cash_register_movement

' Canal de venta se vincula a muchas ventas.
Sales_channel "1" -- "0..*" Sale

' Relación de Branch con Puntos de Venta.
Branch "1" -- "0..*" POS
Branch "1" -- "0..*" Warehouse

' Relación de POS con Ventas.
POS "1" -- "0..*" Sale

' Relación de ALMACÉN con operaciones.
Warehouse "1" -- "0..*" Inventory

' Relación entre Warehouse y sí mismo para jerarquía (reabastecimiento).
Warehouse "1" -- "0..*" Warehouse : reabastece

' Relación entre Warehouse_category y Detail_warehouse_category.
Storage_type "1" -- "0..*" Detail_storage_type
Product "1" -- "0..*" Detail_storage_type

' Relación entre Reservation y Customer/Table.
Customer "1" -- "0..*" Reservation
Table "1" -- "0..*" Reservation
Table "1" -- "0..*" Order

' Un producto puede ser suministrado por muchos proveedores.
Supplier "1" -- "0..*" Product : supplies

' Una venta puede tener muchos descuentos aplicados.
Sale "1" -- "0..*" Discount : has

' Un usuario realiza acciones que se registran en el log de auditoría.
Employee "1" -- "0..*" AuditLog : performs
AuditLog "1" -- "0..1" Product : on_product
AuditLog "1" -- "0..1" Sale : on_sale
AuditLog "1" -- "0..1" Order : on_order
AuditLog "1" -- "0..1" Inventory : on_inventory
'AuditLog "1" -- "0..1" Discount : on_discount



Product "1" -- "0..*" Product_tax : taxed_by
Tax "1" -- "0..*" Product_tax : applies_to
Tax "1" -- "0..*" Sale : applies_to

Employee "1" -- "0..*" Employee_Shift
Shift "1" -- "0..*" Employee_Shift
LoyaltyProgram "1" -- "0..*" Customer : has
Sale "1" -- "0..*" Invoice : has
Sale "1" -- "0..*" Sale_order
Order "1" -- "0..*" Sale_order
@enduml
